<?xml version="1.0" encoding="utf-8"?>
<!-- Generator: Adobe Illustrator 26.1.0, SVG Export Plug-In . SVG Version: 6.00 Build 0)  -->
<svg version="1.1" id="Layer_1" xmlns="http://www.w3.org/2000/svg" xmlns:xlink="http://www.w3.org/1999/xlink" x="0px" y="0px"
	 viewBox="0 0 2000 2000" style="enable-background:new 0 0 2000 2000;" xml:space="preserve">
<style type="text/css">
	.st0{fill:#684C38;}
</style>
<g>
	<g>
		<path class="st0" d="M716.1,905v56.5h-49.3c-6.7,0-11.4,1-14.2,3c-2.8,2-4.2,5.3-4.2,10c0,5.3,1.4,8.8,4.3,10.5
			c2.8,1.7,8.7,2.5,17.5,2.5h50.7v72.5h-59.3c-27.9,0-49.2-6.7-63.9-20c-14.7-13.3-22.1-32.6-22.1-57.7v-99.5
			c0-24.3,7-43.1,20.9-56.5c13.9-13.4,33.6-20.1,58.8-20.1h65.6v72.9h-48.1c-13,0-19.5,4.2-19.5,12.6c0,5,1.5,8.4,4.6,10.3
			c3.1,1.9,8.6,2.9,16.5,2.9H716.1z"/>
		<path class="st0" d="M883.4,805.2v72.3c-5.5-1.9-9.7-2.8-12.6-2.8c-5.7,0-10.6,2.1-14.7,6.3c-4.1,4.2-6.1,9.3-6.1,15.2
			c0,5.1,2.2,11.5,6.7,19.3l5.8,10c10.4,18.1,15.6,35.6,15.6,52.4c0,24.7-8.8,45.5-26.3,62.6c-17.5,17.1-38.9,25.7-64.2,25.7
			c-12.1,0-24.2-2.8-36.1-8.4v-73.4c7.2,4.6,13.6,6.9,19.1,6.9c6.6,0,12.1-1.9,16.5-5.7c4.4-3.8,6.6-8.5,6.6-14.2
			c0-3.7-3.5-11.8-10.6-24.4c-11.3-19.8-16.9-39.7-16.9-59.5c0-23.9,8.5-44.5,25.6-61.8c17-17.3,37.4-25.9,61.1-25.9
			C863.1,800,873.3,801.7,883.4,805.2z"/>
		<path class="st0" d="M1004.2,972.3v-66.6c15.2,0,22.9-5.8,22.9-17.5c0-10.7-5.8-16-17.5-16c-11.8,0-17.7,7.3-17.7,21.9v165.8
			h-75.5v-158c0-16.4,1.6-29.8,4.9-40.2c3.3-10.5,8.9-20.2,16.8-29.3c8.9-10,20.1-18,33.5-23.8c13.4-5.8,27.2-8.7,41.5-8.7
			c25.8,0,47.4,8.7,65,26c17.5,17.4,26.3,38.9,26.3,64.5c0,24.9-7.9,45.1-23.6,60.6c-14.4,14.3-36.1,21.4-65.1,21.4L1004.2,972.3z"
			/>
		<path class="st0" d="M1227.7,932.7v66.9h-21.8v60.4h-75.5V898.7c0-31.2,8.5-55.5,25.6-72.8c17-17.3,41-25.9,71.8-25.9
			c29.7,0,51.7,7.8,66,23.5c14.3,15.7,21.4,39.9,21.4,72.6v164h-75.5V901.1c0-9.9-1.2-16.8-3.5-20.6c-2.4-3.8-6.6-5.8-12.6-5.8
			c-11.8,0-17.7,8.8-17.7,26.4v31.6H1227.7z"/>
		<path class="st0" d="M1532.5,936.1l79,2c-5.2,40.9-19.4,72.5-42.5,94.8c-23.1,22.3-53.3,33.5-90.4,33.5c-37.8,0-69.4-12.7-94.9-38
			c-25.5-25.3-38.2-56.8-38.2-94.3c0-37.8,13-69.6,38.9-95.4c26-25.8,58-38.7,96-38.7c37.4,0,68.7,12.6,93.7,37.9
			c17.3,17.5,29.6,41.8,36.8,73.1l-80.9,5.4c-9-27.8-26.2-41.6-51.5-41.6c-16.1,0-29.4,5.6-39.9,16.7
			c-10.5,11.2-15.7,25.3-15.7,42.6c0,16.6,5.1,30.3,15.4,41.2c10.3,10.8,23.3,16.3,39,16.3c16,0,28.7-4.8,38.2-14.3
			C1525.2,967.6,1530.8,953.9,1532.5,936.1z"/>
		<path class="st0" d="M1767.5,800c35.9,0,66.8,13.1,92.5,39.2c25.7,26.2,38.6,57.4,38.6,93.9c0,37.1-13,68.5-38.9,94.4
			c-25.9,25.9-57.4,38.9-94.4,38.9c-36.8,0-68.2-13-94.2-39s-39-57.4-39-94.2c0-37.2,13.1-68.7,39.3-94.4
			C1697.5,812.9,1729.6,800,1767.5,800z M1765.3,874.7c-15.5,0-28.7,5.7-39.6,17.1c-10.9,11.4-16.4,25.2-16.4,41.3
			c0,16.1,5.5,29.9,16.5,41.3c11,11.4,24.1,17.1,39.5,17.1c15.6,0,28.8-5.7,39.7-17c10.8-11.3,16.3-25.1,16.3-41.4
			c0-16.2-5.4-30-16.3-41.4C1794.1,880.4,1780.9,874.7,1765.3,874.7z"/>
	</g>
	<g>
		<path class="st0" d="M94.9,1161.2v-0.2c0-16.4,12.2-29.9,29.2-29.9c10.5,0,16.8,3.7,22.5,9.2l-4.5,4.8c-4.9-4.6-10.3-7.9-18.2-7.9
			c-12.8,0-22.4,10.4-22.4,23.7v0.2c0,13.4,9.7,23.9,22.4,23.9c7.9,0,13.1-3.1,18.7-8.3l4.3,4.2c-6,6.1-12.6,10.2-23.1,10.2
			C107.2,1190.9,94.9,1177.8,94.9,1161.2z"/>
		<path class="st0" d="M158.4,1132.1h24.9c7.1,0,12.8,2.1,16.4,5.8c2.8,2.8,4.5,6.9,4.5,11.4v0.2c0,9.6-6.6,15.2-15.7,16.8
			l17.8,23.6h-8l-16.8-22.5H165v22.5h-6.5V1132.1z M182.7,1161.6c8.7,0,14.9-4.5,14.9-11.9v-0.2c0-7.1-5.5-11.4-14.8-11.4H165v23.5
			H182.7z"/>
		<path class="st0" d="M239.5,1131.7h6.1l26.3,58.2h-7l-6.8-15.3h-31.5l-6.9,15.3h-6.7L239.5,1131.7z M255.6,1168.8l-13.1-29.5
			l-13.2,29.5H255.6z"/>
		<path class="st0" d="M283.4,1132.1h41.5v6h-35v20.6h31.3v5.9h-31.3v25.2h-6.5V1132.1z"/>
		<path class="st0" d="M352.8,1138.2h-19.4v-6h45.4v6h-19.4v51.8h-6.6V1138.2z"/>
		<path class="st0" d="M391.6,1132.1h6.5v57.8h-6.5V1132.1z"/>
		<path class="st0" d="M415.1,1132.1h6.1l36.4,46.3v-46.3h6.4v57.8h-5.2l-37.3-47.4v47.4h-6.4V1132.1z"/>
		<path class="st0" d="M477.8,1161.2v-0.2c0-15.9,11.6-29.9,29-29.9c9.7,0,15.8,2.8,21.6,7.7l-4.2,5c-4.5-3.9-9.4-6.6-17.6-6.6
			c-12.8,0-22,10.8-22,23.7v0.2c0,13.8,8.8,24,22.9,24c6.6,0,12.7-2.6,16.7-5.8v-14.4h-17.6v-5.9h23.9v23
			c-5.4,4.8-13.5,8.8-23.2,8.8C489,1190.9,477.8,1177.7,477.8,1161.2z"/>
		<path class="st0" d="M567.3,1161.2v-0.2c0-16.4,12.2-29.9,29.2-29.9c10.5,0,16.8,3.7,22.5,9.2l-4.5,4.8
			c-4.9-4.6-10.3-7.9-18.2-7.9c-12.8,0-22.4,10.4-22.4,23.7v0.2c0,13.4,9.7,23.9,22.4,23.9c7.9,0,13.1-3.1,18.7-8.3l4.3,4.2
			c-6,6.1-12.6,10.2-23.1,10.2C579.6,1190.9,567.3,1177.8,567.3,1161.2z"/>
		<path class="st0" d="M626.6,1161.2v-0.2c0-15.9,12-29.9,29.6-29.9c17.6,0,29.4,13.8,29.4,29.7v0.2c0,15.9-12,29.9-29.6,29.9
			C638.4,1190.9,626.6,1177.1,626.6,1161.2z M678.7,1161.2v-0.2c0-13.1-9.6-23.9-22.8-23.9c-13.2,0-22.6,10.6-22.6,23.7v0.2
			c0,13.1,9.6,23.9,22.8,23.9C669.3,1184.9,678.7,1174.3,678.7,1161.2z"/>
		<path class="st0" d="M699.3,1132.1h6.6l21.1,31.5l21.1-31.5h6.6v57.8h-6.5v-46.8l-21.1,31h-0.3l-21.1-30.9v46.7h-6.4V1132.1z"/>
		<path class="st0" d="M771,1132.1h41.5v6h-35v20.6h31.3v5.9h-31.3v25.2H771V1132.1z"/>
		<path class="st0" d="M821.3,1161.2v-0.2c0-15.9,12-29.9,29.6-29.9c17.6,0,29.4,13.8,29.4,29.7v0.2c0,15.9-12,29.9-29.6,29.9
			S821.3,1177.1,821.3,1161.2z M873.5,1161.2v-0.2c0-13.1-9.6-23.9-22.8-23.9s-22.6,10.6-22.6,23.7v0.2c0,13.1,9.6,23.9,22.8,23.9
			S873.5,1174.3,873.5,1161.2z"/>
		<path class="st0" d="M894.1,1132.1H919c7.1,0,12.8,2.1,16.4,5.8c2.8,2.8,4.5,6.9,4.5,11.4v0.2c0,9.6-6.6,15.2-15.7,16.8l17.8,23.6
			h-8l-16.8-22.5h-16.5v22.5h-6.5V1132.1z M918.4,1161.6c8.7,0,14.9-4.5,14.9-11.9v-0.2c0-7.1-5.5-11.4-14.8-11.4h-17.8v23.5H918.4z
			"/>
		<path class="st0" d="M968.5,1138.2h-19.4v-6h45.4v6h-19.4v51.8h-6.6V1138.2z"/>
		<path class="st0" d="M994.1,1197.1c4.1-1.5,5.9-3.6,5.5-7.2h-3v-8.7h7.6v7.4c0,6.7-2.9,9.9-9.2,11.3L994.1,1197.1z"/>
		<path class="st0" d="M1043.5,1132.1h20.1c18.2,0,30.7,12.5,30.7,28.7v0.2c0,16.3-12.6,28.9-30.7,28.9h-20.1V1132.1z
			 M1063.5,1183.9c14.6,0,23.9-9.9,23.9-22.7v-0.2c0-12.8-9.3-22.9-23.9-22.9H1050v45.8H1063.5z"/>
		<path class="st0" d="M1108,1132.1h41.8v5.9h-35.3v19.7h31.5v5.9h-31.5v20.2h35.7v5.9H1108V1132.1z"/>
		<path class="st0" d="M1159.6,1181.5l4-4.8c6,5.5,11.8,8.2,19.8,8.2c7.8,0,12.9-4.1,12.9-9.8v-0.2c0-5.4-2.9-8.4-15-11
			c-13.3-2.9-19.4-7.2-19.4-16.7v-0.2c0-9.1,8-15.8,19-15.8c8.4,0,14.5,2.4,20.3,7.1l-3.8,5c-5.4-4.4-10.7-6.3-16.7-6.3
			c-7.5,0-12.3,4.1-12.3,9.3v0.2c0,5.5,3,8.5,15.7,11.2c12.9,2.8,18.8,7.5,18.8,16.4v0.2c0,9.9-8.3,16.4-19.7,16.4
			C1174,1190.8,1166.5,1187.7,1159.6,1181.5z"/>
		<path class="st0" d="M1216.8,1132.1h6.5v57.8h-6.5V1132.1z"/>
		<path class="st0" d="M1237.7,1161.2v-0.2c0-15.9,11.6-29.9,29-29.9c9.7,0,15.8,2.8,21.6,7.7l-4.2,5c-4.5-3.9-9.4-6.6-17.6-6.6
			c-12.8,0-22,10.8-22,23.7v0.2c0,13.8,8.8,24,22.9,24c6.6,0,12.7-2.6,16.7-5.8v-14.4h-17.6v-5.9h23.9v23
			c-5.4,4.8-13.5,8.8-23.2,8.8C1248.9,1190.9,1237.7,1177.7,1237.7,1161.2z"/>
		<path class="st0" d="M1305,1132.1h6.1l36.4,46.3v-46.3h6.4v57.8h-5.2l-37.3-47.4v47.4h-6.4V1132.1z"/>
		<path class="st0" d="M1370.8,1132.1h6.5v57.8h-6.5V1132.1z"/>
		<path class="st0" d="M1394.3,1132.1h6.1l36.4,46.3v-46.3h6.4v57.8h-5.2l-37.3-47.4v47.4h-6.4V1132.1z"/>
		<path class="st0" d="M1456.9,1161.2v-0.2c0-15.9,11.6-29.9,29-29.9c9.7,0,15.8,2.8,21.6,7.7l-4.2,5c-4.5-3.9-9.4-6.6-17.6-6.6
			c-12.8,0-22,10.8-22,23.7v0.2c0,13.8,8.8,24,22.9,24c6.6,0,12.7-2.6,16.7-5.8v-14.4h-17.6v-5.9h23.9v23
			c-5.4,4.8-13.5,8.8-23.2,8.8C1468.2,1190.9,1456.9,1177.7,1456.9,1161.2z"/>
		<path class="st0" d="M1549,1132.1h20.1c18.2,0,30.7,12.5,30.7,28.7v0.2c0,16.3-12.6,28.9-30.7,28.9H1549V1132.1z M1569.1,1183.9
			c14.6,0,23.9-9.9,23.9-22.7v-0.2c0-12.8-9.3-22.9-23.9-22.9h-13.5v45.8H1569.1z"/>
		<path class="st0" d="M1613.6,1132.1h24.9c7.1,0,12.8,2.1,16.4,5.8c2.8,2.8,4.5,6.9,4.5,11.4v0.2c0,9.6-6.6,15.2-15.7,16.8
			l17.8,23.6h-8l-16.8-22.5h-16.5v22.5h-6.5V1132.1z M1637.8,1161.6c8.7,0,14.9-4.5,14.9-11.9v-0.2c0-7.1-5.4-11.4-14.8-11.4h-17.8
			v23.5H1637.8z"/>
		<path class="st0" d="M1673.3,1132.1h41.8v5.9h-35.3v19.7h31.5v5.9h-31.5v20.2h35.7v5.9h-42.2V1132.1z"/>
		<path class="st0" d="M1750,1131.7h6.1l26.3,58.2h-7l-6.8-15.3h-31.5l-6.9,15.3h-6.7L1750,1131.7z M1766.1,1168.8l-13.1-29.5
			l-13.2,29.5H1766.1z"/>
		<path class="st0" d="M1793.8,1132.1h6.6l21.1,31.5l21.1-31.5h6.6v57.8h-6.5v-46.8l-21.1,31h-0.3l-21.1-30.9v46.7h-6.4V1132.1z"/>
		<path class="st0" d="M1861.7,1181.5l4-4.8c6,5.5,11.8,8.2,19.8,8.2c7.8,0,12.9-4.1,12.9-9.8v-0.2c0-5.4-2.9-8.4-15-11
			c-13.3-2.9-19.4-7.2-19.4-16.7v-0.2c0-9.1,8-15.8,19-15.8c8.4,0,14.5,2.4,20.3,7.1l-3.8,5c-5.4-4.4-10.7-6.3-16.7-6.3
			c-7.5,0-12.3,4.1-12.3,9.3v0.2c0,5.5,3,8.5,15.7,11.2c12.9,2.8,18.8,7.5,18.8,16.4v0.2c0,9.9-8.3,16.4-19.7,16.4
			C1876.2,1190.8,1868.6,1187.7,1861.7,1181.5z"/>
	</g>
	<path class="st0" d="M173.9,888.1c0.2,0,0.3,0,0.5,0c0.5,0,1.1,0,1.6,0c0.4,0,0.8,0,1.1,0c1.1,0,2.1,0,3.2,0c1.1,0,2.3,0,3.5,0
		c2.3,0,4.6,0,6.8,0c2.7,0,5.5,0,8.2,0c6.6,0,13.2,0,19.8,0c3.1,0,6.3,0,9.4,0c10.5,0,21,0,31.5,0c0.5,0,1,0,1.5,0c1,0,2,0,3,0
		c1.2,0,2.4,0,3.6,0c0.3,0,0.7,0,1,0c10.8,0,21.7,0,32.5,0c7.8,0,15.6,0,23.4,0c0.2,0,0.3,0,0.5,0c3.5,0,7,0,10.6,0
		c1.4,0,2.8,0,4.2,0c0.3,0,0.6,0,0.9,0c5,0,10,0,15,0c5,0,10,0,15,0c3,0,6,0,9,0c2,0,4,0,6,0c1.1,0,2.3,0,3.4,0c1,0,2.1,0,3.1,0
		c0.4,0,0.7,0,1.1,0c3.3,0,5.9,0.5,8.8,2.2c0.2,0.1,0.3,0.2,0.5,0.3c2.8,1.9,4.6,5,5.4,8.3c0.2,0.9,0.3,1.7,0.4,2.6
		c0.1,0.3,0.1,0.6,0.2,0.9c0.5,2.8,0.7,5.7,0.9,8.5c0.2-0.1,0.5-0.2,0.7-0.4c5.6-2.9,11.2-3.9,17.4-3.9c0.4,0,0.7,0,1.1,0
		c1,0,2,0,3,0c0.6,0,1.2,0,1.9,0c1.9,0,3.9,0,5.8,0c2.2,0,4.5,0,6.7,0c1.7,0,3.5,0,5.2,0c1,0,2.1,0,3.1,0c1,0,1.9,0,2.9,0
		c0.4,0,0.7,0,1.1,0c4.5,0,8.2,1,11.5,4.1c3.3,3.5,4.4,7.7,4.4,12.4c0,0.4,0,0.8,0,1.1c0,1,0,2.1,0,3.1c0,1.1,0,2.2,0,3.4
		c0,2.2,0,4.4,0,6.6c0,1.8,0,3.6,0,5.4c0,0.3,0,0.5,0,0.8c0,0.5,0,1,0,1.6c0,4.9,0,9.7,0,14.5c0,4.1,0,8.3,0,12.5
		c0,4.8,0,9.7,0,14.5c0,0.5,0,1,0,1.5c0,0.3,0,0.5,0,0.8c0,1.8,0,3.6,0,5.3c0,2.2,0,4.3,0,6.5c0,1.1,0,2.2,0,3.3
		c0,8.5,0,8.5-1.1,12.4c-0.1,0.3-0.1,0.5-0.2,0.8c-1.6,5.6-5.8,10.3-10.8,13.2c-5.7,3.1-11.9,3.1-18.2,3c0,0.2,0,0.4,0,0.6
		c0,2,0,4.1,0,6.1c0,1,0,2.1,0,3.1c0,1,0,2,0,3c0,0.4,0,0.8,0,1.1c0,3.2-0.2,5.6-2.4,8c-1.4,1.4-3.2,1.8-5.1,1.9
		c-4.2-0.3-6.9-4-9.7-6.8c-0.6-0.6-1.1-1.2-1.7-1.7c-1.2-1.2-2.4-2.4-3.6-3.7c-1.4-1.4-2.8-2.8-4.2-4.3c-0.6-0.6-1.1-1.1-1.7-1.7
		c-0.3-0.3-0.7-0.7-1-1c-0.2-0.2-0.3-0.3-0.5-0.5c-0.7-0.7-1.3-1.3-2.1-1.9c-0.6-0.5-0.6-0.5-1.1-1.1c-0.7-0.9-1.3-1.2-2.4-1.4
		c-0.3,0-0.6,0-0.9,0c-0.2,0-0.3,0-0.5,0c-0.6,0-1.2,0-1.7,0c-0.4,0-0.8,0-1.3,0c-1.2,0-2.3,0-3.5,0c-1.3,0-2.5,0-3.8,0
		c-2.2,0-4.4,0-6.7,0c-3.3,0-6.6,0-9.9,0c-5.5,0-11.1,0-16.7,0c-5.5,0-11,0-16.5,0c-0.3,0-0.7,0-1,0c-1.4,0-2.8,0-4.2,0
		c-3.9,0-7.7,0-11.6,0c-0.2,0-0.4,0-0.5,0c-8.6,0-17.2,0-25.8,0c-11.9,0-23.9,0-35.8,0c-0.4,0-0.7,0-1.1,0c-1.3,0-2.6,0-3.9,0
		c-1.1,0-2.2,0-3.3,0c-0.6,0-1.1,0-1.7,0c-11.6,0-23.1,0-34.6,0c-3.6,0-7.2,0-10.8,0c-7.2,0-14.4,0-21.7,0c-3,0-6,0-9,0
		c-2.5,0-5,0-7.4,0c-1.2,0-2.5,0-3.7,0c-1.1,0-2.3,0-3.4,0c-0.4,0-0.8,0-1.2,0c-1.8,0-3.6,0-5.4,0.1c-0.4,0-0.4,0-0.7,0
		c-1.3,0.3-2.1,1.2-2.9,2.1c-0.2,0.2-0.4,0.4-0.6,0.6c-0.6,0.6-1.1,1.1-1.7,1.7c-0.6,0.6-1.2,1.2-1.8,1.8c-1.1,1.1-2.2,2.3-3.3,3.4
		c-1.6,1.7-3.3,3.3-4.9,5c-0.2,0.2-0.2,0.2-0.4,0.4c-0.2,0.2-0.5,0.5-0.7,0.7c-0.7,0.7-1.4,1.4-2.1,2.1c-0.5,0.6-1.1,1.1-1.6,1.6
		c-0.2,0.2-0.4,0.4-0.6,0.6c-1.9,1.9-3.8,3.4-6.6,3.7c-2.5-0.1-4.2-0.8-5.9-2.5c-1.3-1.6-1.8-3.2-1.9-5.3c0-0.2,0-0.4,0-0.6
		c-0.1-3-0.1-5.9-0.1-8.9c0-1.2,0-2.4,0-3.6c0-0.4,0-0.4,0-0.8c0-0.3,0-0.5,0-0.8c0-0.3,0-0.3,0-0.7c0-0.5,0-0.5-0.3-0.7
		c-0.6,0-1.2-0.1-1.8-0.1c-0.4,0-0.8,0-1.2,0c-0.6,0-1.2,0-1.8,0c-6.4-0.1-12.1-1.3-17-5.8c-0.2-0.2-0.4-0.4-0.6-0.5
		c-4.4-4.1-6.9-9.9-7.2-16c0-1,0-2,0-3c0-0.4,0-0.8,0-1.1c0-1,0-2.1,0-3.1c0-1.1,0-2.3,0-3.4c0-2.5,0-4.9,0-7.4c0-1.5,0-3.1,0-4.6
		c0-4.3,0-8.6,0-12.8c0-0.3,0-0.5,0-0.8c0-0.6,0-1.1,0-1.7c0-0.3,0-0.5,0-0.8c0-0.3,0-0.5,0-0.8c0-4.5,0-8.9,0-13.4
		c0-4.6,0-9.2,0-13.7c0-2.6,0-5.1,0-7.7c0-2.2,0-4.4,0-6.6c0-1.1,0-2.2,0-3.3c0-1,0-2,0-3.1c0-0.4,0-0.7,0-1.1
		c0-4.5,1.4-8.5,4.6-11.9c3.3-3.1,7.1-3.9,11.5-3.9c0.4,0,0.7,0,1.1,0c1,0,2,0,2.9,0c0.8,0,1.6,0,2.5,0c1.9,0,3.9,0,5.8,0
		c2,0,4,0,6,0c1.7,0,3.4,0,5.2,0c1,0,2,0,3.1,0c7.1,0,13.9,0.1,20.2,3.5c0.7,0.3,1.3,0.6,2,0.9c0-0.2,0-0.5,0-0.7
		c0.1-2.6,0.4-5.1,0.8-7.7c0-0.2,0-0.2,0.1-0.5c0.7-4.4,2-8.4,5.7-11.3C168.6,889.2,171,888.1,173.9,888.1L173.9,888.1z
		 M168.7,895.9c-3.4,3.8-3.2,10.8-3.5,15.6c0,0.6-0.1,1.3-0.2,1.9c-0.2,2.9,0.8,4.7,2.4,7.1c0.5,0.7,0.9,1.5,1.3,2.3
		c0.1,0.2,0.1,0.3,0.2,0.5c1.1,2.2,2.1,4.5,3.2,6.8c0.4,0.8,0.7,1.6,1.1,2.4c1,2.3,2.1,4.5,3.1,6.8c0.2,0.4,0.2,0.4,0.4,0.8
		c1.9,4.3,3.6,8.6,4.7,13.1c0.1,0.3,0.1,0.3,0.2,0.7c0.9,3.9,1,7.8,1.1,11.7c0,0.5,0,0.9,0,1.4c0,1.1,0,2.2,0.1,3.3
		c1.4-0.1,2.6-0.3,4-0.7c0.3-0.1,0.7-0.2,1-0.3c0.2,0,0.4-0.1,0.5-0.1c4.4-1.1,8.9-2,13.4-2.6c0.4-0.1,0.9-0.1,1.3-0.2
		c18.2-2.8,37.2-3.4,55.4-3.9c0.3,0,0.3,0,0.5,0c7.9-0.2,15.8-0.3,23.7-0.3c1.3,0,2.5,0,3.7,0c13.4,0,26.8,0.2,40.3,0.9
		c0.5,0,1.1,0.1,1.6,0.1c26.1,1.4,26.1,1.4,38.6,3.3c0.2,0,0.3,0,0.5,0.1c5,0.7,9.9,1.7,14.8,3c0.2,0.1,0.4,0.1,0.6,0.2
		c0.4,0.1,0.8,0.2,1.2,0.3c0.8,0.2,1.5,0.3,2.4,0.3c0-0.3,0-0.3,0-0.7c-0.2-12.6,2.9-23,8.2-34.3c0.6-1.2,1.1-2.5,1.7-3.7
		c0.3-0.6,0.6-1.3,0.9-1.9c0.2-0.4,0.4-0.8,0.6-1.2c3.3-7.2,3.3-7.2,4.9-9.7c2.5-4.1,1-10.6,0.3-15.1c-0.1-0.4-0.1-0.4-0.1-0.7
		c-0.5-3-1.2-5.6-3.6-7.6c-2.9-1.9-6.6-1.6-10-1.6c-0.4,0-0.7,0-1.1,0c-1,0-2,0-3.1,0c-1.1,0-2.2,0-3.3,0c-1.9,0-3.9,0-5.8,0
		c-2.9,0-5.8,0-8.7,0c-5.2,0-10.3,0-15.5,0c-4.5,0-9,0-13.5,0c-0.5,0-0.5,0-0.9,0c-1.2,0-2.4,0-3.6,0c-8.5,0-17,0-25.3,0
		c-0.2,0-0.2,0-0.5,0c-2.6,0-5.2,0-7.8,0c-10.3,0-20.6,0-30.8,0c-2.6,0-5.2,0-7.8,0c-0.2,0-0.3,0-0.5,0c-8.6,0-17.2,0-25.8,0
		c-1.2,0-2.4,0-3.6,0c-0.3,0-0.6,0-0.9,0c-4.5,0-9,0-13.5,0c-5.1,0-10.3,0-15.4,0c-2.9,0-5.7,0-8.6,0c-1.9,0-3.8,0-5.8,0
		c-1.1,0-2.2,0-3.3,0c-1,0-2,0-3,0c-0.4,0-0.7,0-1.1,0c-6-0.2-6-0.2-11.1,2.4L168.7,895.9z M126.8,912c0.1,0.1,0.1,0.3,0.2,0.4
		l0.5,1h0.5c0.2,0.3,0.3,0.6,0.5,0.9h0.5c0.1,0.1,0.1,0.3,0.2,0.4c0.3,0.6,0.7,1,1.2,1.5c1,1.1,1.8,2.3,2.5,3.7
		c0.2,0.4,0.2,0.4,0.4,0.7c1.3,2.3,2.3,4.7,3.4,7.1c0.7,1.6,1.4,3.1,2.1,4.7c0.3,0.6,0.5,1.1,0.8,1.7c0.7,1.6,1.5,3.2,2.3,4.9
		c3,6.4,5.3,12.9,6.1,19.9c0,0.2,0,0.4,0.1,0.5c0.2,1.8,0.2,3.6,0.2,5.4c0,0.2,0,0.3,0,0.5c0,7.2-1.3,14.5-4.4,21
		c-0.2,0.5-0.2,0.5-0.2,1.2c1-0.4,2-0.9,2.9-1.4c0.2-0.1,0.3-0.2,0.5-0.3c0.8-0.5,1.6-0.9,2.4-1.4c8.1-4.6,16.5-8.3,25.3-11.4
		c0.2-0.1,0.5-0.2,0.7-0.3c0.2-0.1,0.4-0.1,0.6-0.2c0.5-0.1,0.5-0.1,0.7-0.4c0.1-0.4,0.1-0.8,0.1-1.2c0-0.4,0-0.4,0.1-0.7
		c0.3-3.4,0.3-3.4,0.3-6.9c0-0.2,0-0.4,0-0.6c-0.4-7.2-2.4-13.7-5.4-20.2c-0.4-0.8-0.7-1.6-1.1-2.4c-0.9-2.2-1.9-4.3-3-6.4
		c-0.2-0.4-0.3-0.7-0.5-1.1c-0.1-0.2-0.2-0.4-0.3-0.6c-0.7-1.4-1.3-2.9-1.9-4.3c-2.4-5.4-4.9-10.3-10.3-13.2
		c-0.2-0.1-0.2-0.1-0.5-0.3c-3.8-2.1-8.4-2.2-12.6-2.2c-0.4,0-0.9,0-1.3,0c-1.1,0-2.2,0-3.4,0c-1.1,0-2.3,0-3.5,0
		C131.4,912.1,129.1,912.1,126.8,912L126.8,912z M433.8,912.1c-1,0-2,0-3.1,0c-1,0-2,0-3,0c-0.4,0-0.7,0-1.1,0
		c-3.2,0-6.5,0.1-9.5,1.2c-0.3,0.1-0.3,0.1-0.5,0.2c-6.1,2.2-9.1,6.9-11.8,12.5c-0.1,0.3-0.3,0.5-0.4,0.8c-1.5,3.2-3.1,6.5-4.5,9.8
		c-0.5,1.1-0.9,2.1-1.4,3.2c-4.7,9.9-8.4,20.9-6.3,32c0.4,0.8,0.7,1,1.6,1.3c0.2,0.1,0.3,0.1,0.5,0.2c0.2,0.1,0.4,0.1,0.5,0.2
		c0.4,0.1,0.8,0.3,1.2,0.4c1,0.3,2.1,0.7,3.1,1.1c0.2,0.1,0.4,0.1,0.6,0.2c2,0.7,4,1.6,5.9,2.4c0.2,0.1,0.2,0.1,0.5,0.2
		c1,0.4,2,0.9,3,1.4c0.2,0.1,0.4,0.2,0.6,0.3c5.1,2.3,10,5,14.7,7.9c0.5,0.3,0.5,0.3,1,0.3c-0.3-1.1-0.7-2.1-1.1-3.2
		c-2.4-6.5-3.8-13.3-3.6-20.3l0-0.9c0.3-10.1,4.1-19.1,8.3-28.2c0.7-1.4,1.3-2.8,2-4.2c0.1-0.2,0.2-0.4,0.3-0.7
		c0.6-1.3,1.1-2.5,1.7-3.8c2.4-5.3,5-9.9,9.2-14c-0.1-0.2-0.2-0.3-0.2-0.5C439.3,911.9,436.5,912,433.8,912.1L433.8,912.1z
		 M102.7,915.1c-1.6,1.9-2.1,4.3-2.1,6.8c0,0.2,0,0.3,0,0.5c0,0.5,0,1,0,1.5c0,0.4,0,0.7,0,1.1c0,1,0,2,0,3.1c0,1.1,0,2.2,0,3.3
		c0,2.2,0,4.3,0,6.5c0,1.8,0,3.5,0,5.3c0,5,0,10,0,15c0,0.3,0,0.5,0,0.8c0,0.3,0,0.5,0,0.8c0,4.4,0,8.7,0,13.1c0,4.5,0,9,0,13.5
		c0,2.5,0,5,0,7.6c0,2.1,0,4.3,0,6.4c0,1.1,0,2.2,0,3.3c0,1,0,2,0,3c0,0.4,0,0.7,0,1.1c0,6,1.3,10.8,5.5,15.2
		c3.9,3.5,8.4,4.8,13.5,4.8c0.2,0,0.5,0,0.7,0c0.8,0,1.6,0,2.4,0c0.6,0,1.1,0,1.7,0c1.2,0,2.5,0,3.7,0c1.9,0,3.7,0,5.6,0
		c3.2,0,6.4,0,9.5,0c3.2,0,6.5,0,9.7,0c0.2,0,0.4,0,0.6,0c0.8,0,1.7,0,2.5,0c9.8,0,19.7,0,29.4,0c4.9,0,9.8,0,14.7,0
		c15.7,0,31.5,0,47.1,0c0.8,0,1.5,0,2.3,0c1.5,0,3,0,4.5,0c1.8,0,3.5,0,5.3,0c0.5,0,1,0,1.5,0c16.2,0,32.5,0,48.6,0
		c11.6,0,23.3,0,34.8,0c0.4,0,0.4,0,0.7,0c5.3,0,10.5,0,15.8,0c1.9,0,3.8,0,5.6,0c0.5,0,0.9,0,1.4,0c7.5,0,14.9,0,22.4,0
		c7.5,0,15,0,22.5,0c1,0,2.1,0,3.1,0c0.2,0,0.4,0,0.6,0c3.2,0,6.4,0,9.7,0c3.2,0,6.3,0,9.5,0c1.9,0,3.7,0,5.6,0c1.4,0,2.7,0,4.1,0
		c0.6,0,1.1,0,1.7,0c5.6,0,10.3-0.7,14.8-4.1c0.3-0.2,0.3-0.2,0.6-0.5c3.2-2.7,5.2-6.9,5.6-11.1c0.2-2.1,0.2-4.2,0.2-6.3
		c0-0.4,0-0.7,0-1.1c0-1,0-2,0-3c0-1.1,0-2.2,0-3.2c0-2.1,0-4.2,0-6.3c0-1.7,0-3.4,0-5.1c0-4.9,0-9.7,0-14.6c0-0.3,0-0.5,0-0.8
		c0-0.3,0-0.5,0-0.8c0-4.2,0-8.5,0-12.7c0-4.4,0-8.7,0-13.1c0-2.4,0-4.9,0-7.3c0-2.1,0-4.2,0-6.3c0-1.1,0-2.1,0-3.2c0-1,0-1.9,0-2.9
		c0-0.4,0-0.7,0-1.1c0-3.4,0-6.7-2.4-9.4c-2.2-2.1-4.8-2.8-7.8-2.8c-5.5,0.2-10.7,2.6-14.5,6.6c-2.1,2.5-3.6,5.3-5,8.3
		c-0.2,0.4-0.3,0.7-0.5,1.1c-0.5,1.1-1,2.2-1.5,3.2c-0.2,0.3-0.3,0.7-0.5,1c-0.8,1.7-1.5,3.3-2.3,5c-0.5,1.1-1,2.3-1.5,3.4
		c-3.6,7.7-6.2,15.3-6.4,23.7c0,0.4,0,0.4,0,0.7c-0.4,11,4.2,23,11.7,31c0.3,0.4,0.7,0.7,1,1.1c0.3,0.3,0.6,0.6,0.9,1
		c0.4,0.5,0.7,0.9,0.9,1.5c-0.3,0.3-0.3,0.3-0.6,0.6c-0.3,0.3-0.5,0.5-0.8,0.8c-0.1,0.1-0.3,0.3-0.4,0.4c-0.2,0.2-0.2,0.2-0.4,0.4
		c-0.1,0.1-0.2,0.2-0.4,0.4c-0.4,0.4-0.4,0.4-0.8,1.1c-1.1-0.1-1.7-0.9-2.4-1.6c-7-6.7-16.3-12-25.1-16.2c-0.6-0.3-1.3-0.6-1.9-0.9
		c-11.2-5.6-23.3-9.4-35.5-11.7c-0.2,0-0.4-0.1-0.6-0.1c-6.2-1.2-12.4-1.9-18.7-2.4c-0.5,0-1.1-0.1-1.6-0.1
		c-12.6-1-25.3-1.8-37.9-2.3c-0.2,0-0.4,0-0.6,0c-2.2-0.1-4.4-0.2-6.6-0.2c-0.7,0-1.3,0-2,0c-19.1-0.4-38.1-0.3-116.8,7.1
		c-0.3,0.1-0.5,0.1-0.8,0.2c-14.7,3.6-29.4,10.1-41.9,18.5c-0.5,0.3-0.9,0.6-1.4,0.9c-2,1.3-3.9,2.7-5.7,4.1l-0.7,0.5
		c-0.9,0.7-1.8,1.5-2.7,2.3c-0.1,0.1-0.3,0.2-0.4,0.4c-0.2,0.2-0.5,0.5-0.7,0.7c-0.9,0.8-0.9,0.8-1.7,0.8c-0.1-0.2-0.2-0.3-0.2-0.5
		h-0.5v-0.5h-0.5c-0.1-0.2-0.1-0.2-0.2-0.4c-0.3-0.6-0.7-1-1.1-1.4c-0.2-0.2-0.2-0.2-0.5-0.4c-0.1-0.1-0.2-0.2-0.3-0.3
		c0.6-1.1,1.3-1.8,2.1-2.7c1.5-1.6,2.8-3.3,4-5.1c0.1-0.1,0.2-0.3,0.3-0.4c1.7-2.5,3-5.1,4.2-7.8c0.1-0.2,0.1-0.2,0.2-0.5
		c4.9-11.3,4.5-24.4,0-35.8c-1.1-2.8-2.3-5.5-3.6-8.3c-0.2-0.4-0.4-0.8-0.5-1.2c-0.4-0.9-0.9-1.9-1.3-2.8c-0.5-1-0.9-2-1.4-3.1
		c-0.2-0.5-0.5-1-0.7-1.5c-0.5-1.2-1.1-2.4-1.6-3.6c-1.5-3.3-1.5-3.3-3.4-6.4c-0.1-0.2-0.3-0.4-0.5-0.6c-0.6-0.8-0.6-0.8-1.2-1.5
		h-0.5c-0.1-0.4-0.1-0.4-0.2-0.7c-3.7-3.7-9-5.5-14.1-5.7c-3,0.1-5.5,1-7.6,3.2L102.7,915.1z M417.7,1033.1
		c-0.1,0.7-0.1,0.7,0.5,1.3c0.2,0.2,0.4,0.4,0.7,0.6c0.2,0.2,0.4,0.4,0.6,0.6c0.5,0.5,0.5,0.5,1,0.5c0.1,0.2,0.2,0.5,0.2,0.7
		c0.4,0.4,0.4,0.4,0.8,0.7c1.3,1.1,2.6,2.3,3.7,3.7c0.5,0.7,1.2,1.2,1.9,1.7c0.4,0.4,0.8,0.8,1.2,1.2c0.2,0.2,0.4,0.4,0.6,0.6
		c1.8,1.8,1.8,1.8,2.5,2.7c0.2,0.2,0.3,0.4,0.5,0.6h0.5c0.1,0.4,0.1,0.4,0.2,0.7c0.4,0.4,0.9,0.8,1.4,1.2c0.5,0.4,0.5,0.4,0.9,0.8
		c0.7,0.7,1,0.8,1.9,0.8c0.8-0.2,0.8-0.2,1.2-0.9c0.1-0.8,0.1-0.8,0.1-1.7c0-0.2,0-0.3,0-0.5c0-0.6,0-1.1,0-1.7c0-0.4,0-0.8,0-1.2
		c0-1,0-2,0-3.1c0-1,0-2.1,0-3.1c0-2,0-4.1,0-6.1c-4.8-0.2-9.6-0.3-14.4-0.3c-0.6,0-1.2,0-1.7,0
		C420.5,1033.1,419.1,1033.1,417.7,1033.1L417.7,1033.1z M130.4,1033.3c0,2.2,0,4.3,0,6.5c0,1,0,2,0,3c0,1,0,1.9,0,2.9
		c0,0.4,0,0.7,0,1.1c0,0.5,0,1,0,1.6c0,0.3,0,0.6,0,0.9c0.1,0.9,0.3,1.3,0.8,2c0.8,0.4,0.8,0.4,1.7,0.2c1.8-1.2,3.2-3,4.7-4.5
		c0.5-0.5,0.9-0.9,1.4-1.4c1-1,2-2,3-3c1.2-1.2,2.3-2.3,3.5-3.5c0.5-0.5,0.9-0.9,1.4-1.4c0.3-0.3,0.6-0.6,0.9-0.9
		c0.1-0.1,0.3-0.3,0.4-0.4c0.8-0.8,1.6-1.5,2.4-2.2c0.4-0.3,0.4-0.3,0.6-1c-1-0.2-2-0.3-3.1-0.3c-0.2,0-0.4,0-0.6,0
		c-0.6,0-1.2,0-1.8,0c-0.4,0-0.8,0-1.3,0c-0.9,0-1.8,0-2.7,0c-1.1,0-2.3,0-3.4,0c-0.9,0-1.7,0-2.6,0c-0.4,0-0.8,0-1.3,0
		c-0.6,0-1.2,0-1.7,0c-0.2,0-0.3,0-0.5,0C131.2,1033,131.2,1033,130.4,1033.3L130.4,1033.3z"/>
</g>
</svg>
