<?xml version="1.0" encoding="utf-8"?>
<!-- Generator: Adobe Illustrator 26.1.0, SVG Export Plug-In . SVG Version: 6.00 Build 0)  -->
<svg version="1.0" id="Layer_1" xmlns="http://www.w3.org/2000/svg" xmlns:xlink="http://www.w3.org/1999/xlink" x="0px" y="0px"
	 viewBox="0 0 2000 2000" style="enable-background:new 0 0 2000 2000;" xml:space="preserve">
<style type="text/css">
	.st0{fill:#076AFF;}
	.st1{fill-rule:evenodd;clip-rule:evenodd;fill:#076AFF;}
</style>
<g>
	<path class="st0" d="M262,1056.2c29.9,63.5,64.2,120.5,117.7,163.7c2.4,1.9,4.9,3.6,7.3,5.3c56.7,39,101.9,20.8,111.3-47.6
		c3.8-30,2.9-60.4-2.8-90c-11.4-60-36-101.4-94.1-82.7C365.5,1016.6,298.4,1041.4,262,1056.2z"/>
	<path class="st0" d="M376.6,1261.4c-26.6-28.4-56.4-55.8-80.6-87.5s-42.9-68.2-64.9-104l-107.9,46
		C158.2,1206.9,273,1271.4,376.6,1261.4z"/>
	<path class="st0" d="M330.7,739.8c44.9,28.6,94.3,90.7,121.5,131.9c38,57.3,77.1,45.7,137.9,11.5
		C562.1,805.1,449.3,723.1,330.7,739.8z"/>
	<path class="st0" d="M531.6,1195.5c76-57.1,112.3-191.7,73-281.3c-60.2,9.7-101.7,38.6-88.5,100.5c5.6,25.4,12.8,81.6,15.1,107.5
		C533.2,1147.2,531.6,1172.5,531.6,1195.5z"/>
	<path class="st1" d="M184.2,803.7c-10.6,61.9,2.3,149.1,38.8,239.3c-33.3,12.8-64.9,25.1-89.9,35.7c-5.1,2.2-10.5,4-15.7,5.9
		c-2.4,0.8-4.8,1.7-7.2,2.5C72.8,989.9,106.9,860.9,184.2,803.7z M214.6,829c0.9-6.6,2.2-13.3,3.8-20c13.1-53.4,50.5-70.3,96.8-41.2
		c22.8,14.8,43.4,32.7,61.2,53.3c55.1,62.1,85.6,125.7,9.2,158.2c-34.4,14.7-81.3,32.6-128,50.4c-1.4,0.5-2.8,1.1-4.1,1.6
		C221.8,955.1,208.7,881.5,214.6,829z"/>
	<path d="M785.5,1106.9c-11.8,0-23.2-1.8-34.1-5.5c-10.8-3.8-20.3-9.1-28.4-16.1c-8.2-7-14-15.4-17.6-25.2l35-12.8
		c1.4,4.1,4.3,7.8,8.7,11.2c4.4,3.4,9.7,6.1,16,8.1c6.3,2,13.1,3.1,20.3,3.1c7.4,0,14.4-1.1,20.8-3.4c6.5-2.3,11.8-5.6,15.7-9.6
		c4-4.2,6-9,6-14.5c0-5.6-2.1-10.2-6.3-13.8c-4.2-3.7-9.5-6.6-16-8.7c-6.5-2.1-13.2-3.8-20.2-4.9c-15.2-2.3-28.8-6-40.8-10.9
		c-12-4.9-21.5-11.7-28.6-20.3c-6.9-8.7-10.4-19.9-10.4-33.6c0-12.9,3.7-24.3,11.2-33.9c7.4-9.7,17.2-17.2,29.3-22.6
		c12.1-5.4,25.2-8.1,39.3-8.1c11.7,0,23,1.8,33.9,5.5c10.9,3.7,20.4,9,28.6,16c8.3,7,14.2,15.5,17.7,25.4l-35.2,12.7
		c-1.4-4.1-4.3-7.8-8.7-11.2c-4.4-3.4-9.7-6-16-7.9c-6.3-2-13.1-3.1-20.3-3.1c-7.2-0.1-14.1,1.1-20.6,3.5
		c-6.4,2.3-11.7,5.6-15.7,9.6c-4.1,4.1-6.1,8.8-6.1,14.1c0,6.8,1.9,12,5.7,15.4c3.9,3.5,9,6,15.4,7.6c6.4,1.5,13.6,3,21.4,4.3
		c14.3,2.2,27.5,6,39.6,11.3c12.1,5.3,21.9,12.4,29.2,21.2c7.3,8.8,11,19.5,11,32.3c0,12.9-3.7,24.3-11,34.1
		c-7.3,9.7-17.1,17.2-29.2,22.6C812.9,1104.2,799.7,1106.9,785.5,1106.9z M883.4,950.1h37.3V1103h-37.3V950.1z M902.3,930.4
		c-5.5,0-10.1-1.8-13.9-5.3c-3.8-3.7-5.7-8.3-5.7-13.8c0-5.4,1.9-9.9,5.7-13.6c3.8-3.7,8.4-5.5,13.8-5.5s9.9,1.8,13.6,5.5
		c3.8,3.7,5.7,8.2,5.7,13.6c0,5.5-1.8,10.1-5.5,13.8C912.3,928.6,907.7,930.4,902.3,930.4z M1008.9,1106.9
		c-14.1,0-26.9-3.6-38.5-10.9c-11.5-7.2-20.7-16.9-27.7-29c-6.8-12.2-10.2-25.7-10.2-40.5c0-11.2,2-21.7,6-31.3
		c4-9.8,9.4-18.3,16.4-25.7c7-7.4,15.2-13.2,24.5-17.4c9.3-4.2,19.2-6.3,29.7-6.3c14.1,0,26.9,3.6,38.4,10.9
		c11.6,7.2,20.8,17,27.7,29.2c6.9,12.2,10.4,25.8,10.4,40.7c0,11.1-2,21.5-6,31.2c-4,9.7-9.5,18.2-16.5,25.7
		c-6.9,7.3-15,13.1-24.3,17.3C1029.3,1104.8,1019.5,1106.9,1008.9,1106.9z M1008.9,1069.6c7.4,0,14.1-2,20-6
		c5.9-4,10.5-9.2,13.9-15.7c3.5-6.5,5.2-13.7,5.2-21.4c0-7.9-1.8-15.2-5.3-21.7c-3.5-6.6-8.2-11.9-14.2-15.7c-5.9-4-12.4-6-19.6-6
		c-7.3,0-14,2-19.9,6c-5.9,4-10.6,9.3-14.1,15.9c-3.5,6.6-5.2,13.8-5.2,21.6c0,8.1,1.8,15.3,5.3,21.9c3.6,6.5,8.3,11.7,14.2,15.6
		C995.3,1067.8,1001.8,1069.6,1008.9,1069.6z M1236.9,1006.4v96.6h-37.3v-86.8c0-6-1.5-11.5-4.4-16.4c-3-5-6.9-8.9-11.9-11.8
		c-4.9-3-10.3-4.4-16.4-4.4c-6,0-11.5,1.5-16.5,4.4c-4.9,2.9-8.8,6.8-11.8,11.8c-2.9,4.9-4.3,10.3-4.3,16.4v86.8H1097l-0.2-152.9
		h37.3l0.2,13.6c5.2-5.5,11.4-9.8,18.6-13c7.2-3.3,15-4.9,23.4-4.9c11.1,0,21.2,2.8,30.4,8.3c9.2,5.4,16.5,12.7,21.9,21.9
		C1234.1,985,1236.9,995.2,1236.9,1006.4z M1316.3,1103V889h37.3v176.7h89.1v37.3H1316.3z M1566.8,950.1h37.3V1103h-37.3l-1.7-19
		c-4.2,6.8-9.7,12.4-16.7,16.7c-6.8,4.2-14.9,6.3-24.3,6.3c-11.3,0-21.9-2.1-31.8-6.4c-9.9-4.3-18.6-10.2-26.1-17.7
		c-7.4-7.5-13.3-16.3-17.6-26.1c-4.2-9.9-6.3-20.5-6.3-31.8c0-10.9,2-21.1,6-30.7c4.1-9.6,9.7-18,17-25.2c7.2-7.2,15.6-12.9,25.1-17
		c9.5-4.1,19.7-6.1,30.6-6.1c10.1,0,19.1,2.2,27.1,6.7c8,4.5,14.9,10.2,20.5,17.1L1566.8,950.1z M1523.2,1071c7.9,0,15-2,21.1-6
		c6.1-4,10.9-9.3,14.4-16c3.5-6.8,5.2-14.3,5.2-22.5c0-8.3-1.7-15.7-5.2-22.5c-3.5-6.8-8.3-12.2-14.5-16.2c-6.1-4-13.1-6-20.9-6
		c-7.8,0-15,2-21.6,6.1c-6.4,4-11.6,9.3-15.4,16c-3.8,6.7-5.7,14.2-5.7,22.5s1.9,15.7,5.8,22.5c3.9,6.7,9,12.1,15.4,16
		C1508.4,1069,1515.5,1071,1523.2,1071z M1704.5,945.8c14.9,0,28.4,3.6,40.7,10.9c12.2,7.2,22,17,29.2,29.2
		c7.2,12.1,10.9,25.6,10.9,40.4c0,11.1-2.1,21.6-6.3,31.3c-4.2,9.8-10,18.4-17.4,25.8c-7.3,7.3-15.9,13.1-25.7,17.3
		c-9.7,4.2-20.1,6.3-31.3,6.3c-9.6,0-18.1-2.1-25.5-6.4c-7.3-4.4-13.5-10-18.5-17v19.4h-37.3V873.7h37.3v95.5
		c5-6.9,11.2-12.5,18.5-16.8C1686.5,948,1695,945.8,1704.5,945.8z M1704.1,1070.9c7.9,0,15.1-2,21.6-6c6.5-4.1,11.7-9.5,15.6-16.2
		c3.9-6.7,5.8-14.2,5.8-22.5c0-8.2-1.9-15.6-5.8-22.3c-3.9-6.8-9.1-12.2-15.6-16.2c-6.5-4-13.7-6-21.6-6c-7.7,0-14.7,2-20.8,6.1
		c-6.1,4-10.9,9.4-14.4,16.2c-3.5,6.7-5.2,14.1-5.2,22.2c0,8.3,1.7,15.8,5.2,22.6c3.5,6.7,8.3,12.1,14.4,16
		C1689.4,1068.9,1696.3,1070.9,1704.1,1070.9z M1843.3,1105.7c-7.9-0.5-15.6-2.1-23.1-4.7c-7.3-2.8-13.9-6.5-19.6-11.2
		c-5.7-4.7-10.1-10.3-13.1-16.8l31.5-13.5c1.2,2,3.2,4.2,6,6.6c2.8,2.2,6,4.1,9.8,5.7c3.9,1.5,8.1,2.3,12.7,2.3
		c3.9,0,7.5-0.5,11-1.5c3.6-1.1,6.4-2.8,8.6-5c2.2-2.2,3.4-5.1,3.4-8.7c0-3.8-1.3-6.7-4-8.7c-2.5-2.1-5.8-3.7-9.8-4.7
		c-3.9-1.1-7.6-2.1-11.3-3.1c-9.7-1.9-18.7-4.9-27.1-9c-8.3-4.1-14.9-9.3-20-15.7c-5-6.5-7.5-14.4-7.5-23.5
		c0-10.1,2.6-18.8,7.9-26.1c5.4-7.3,12.4-13,20.9-17c8.7-4,18-6,28-6c12.1,0,23.2,2.5,33.3,7.6c10.2,5,18.2,12.1,24.2,21.2
		l-29.5,17.4c-1.4-2.4-3.4-4.7-6-6.7c-2.5-2.1-5.5-3.9-8.7-5.2c-3.3-1.4-6.7-2.2-10.2-2.4c-4.6-0.2-8.8,0.2-12.5,1.2
		c-3.8,1-6.8,2.8-9.2,5.2c-2.2,2.4-3.4,5.7-3.4,9.8c0,3.9,1.5,6.8,4.6,8.7c3.1,1.8,6.7,3.3,11,4.3c4.4,1,8.6,2.1,12.5,3.4
		c9,3,17.4,6.6,25.2,10.9c7.9,4.3,14.3,9.5,19.1,15.7c4.8,6.2,7.1,13.7,6.9,22.3c0,9.9-3,18.5-8.9,26c-5.9,7.3-13.6,12.9-22.9,16.8
		C1863.8,1105,1853.9,1106.5,1843.3,1105.7z"/>
</g>
</svg>
