<?xml version="1.0" encoding="utf-8"?>
<!-- Generator: Adobe Illustrator 26.1.0, SVG Export Plug-In . SVG Version: 6.00 Build 0)  -->
<svg version="1.1" id="Layer_1" xmlns="http://www.w3.org/2000/svg" xmlns:xlink="http://www.w3.org/1999/xlink" x="0px" y="0px"
	 viewBox="0 0 2000 2000" style="enable-background:new 0 0 2000 2000;" xml:space="preserve">
<style type="text/css">
	.st0{fill:#914BF7;}
</style>
<g>
	<path class="st0" d="M504,933.1l-12.4-7.2h0l-0.5-0.3l-5.6-3.2c0,0,0,0,0,0L199.9,757c-9.7-5.6-21.6-5.4-31,0.6L125,785.3
		c0,0,0,0-0.1,0l-15.6,9.9c-9.9,6.3-15.8,17-15.8,28.7v354.8c0,10.8,5.9,20.9,15.3,26.2l72.9,40.8c1.7,0.9,3.5,1.4,5.4,1.4
		c2,0,4.1-0.6,5.9-1.6c0.1-0.1,0.2-0.2,0.3-0.3l316.9-184.8c9.2-5.4,14.9-15.3,14.9-25.9v-64.8C525.1,954.6,517,940.6,504,933.1z
		 M180.9,776.8c2.3-1.5,5.2-1.5,7.6-0.1l291.8,168.9c3.3,1.9,3.7,5.1,3.7,6.3c0,1.3-0.4,4.4-3.6,6.3L292.1,1068
		c-3.3,1.9-6.2,0.7-7.3,0c-1.1-0.6-3.7-2.5-3.7-6.3l-0.6-56.3l46.9-26.7c9.4-5.4,15.1-15.1,15.1-26c0-10.9-5.6-20.6-15-26L137.2,817
		c-3.2-1.9-3.6-4.9-3.7-6.2c0-1.2,0.3-4.3,3.4-6.3l0,0c0,0,0,0,0.1,0L180.9,776.8z M176,985v231.5l-56.1-31.4
		c-2.3-1.3-3.8-3.8-3.8-6.4V827.3c2.5,3.7,5.7,7,9.8,9.3l190.3,109.7c3.3,1.9,3.7,5.1,3.7,6.4c0,1.3-0.4,4.5-3.7,6.3L269,985.9
		l-48.4-27.1c-9.4-5.3-20.6-5.2-29.8,0.3C181.5,964.6,176,974.2,176,985z M502.5,1034.5c0,2.6-1.4,5-3.6,6.3l-300.2,175.1V985
		c0-3.8,2.5-5.7,3.6-6.3s4-1.9,7.3-0.1l48.4,27l0.6,56.3c0.1,10.8,5.8,20.4,15.2,25.8c4.6,2.6,9.7,3.9,14.8,3.9
		c5.2,0,10.4-1.4,15.1-4.1l188.2-109.7c4.4-2.6,7.9-6.1,10.4-10.3c0.1,0.7,0.3,1.4,0.3,2.1V1034.5z"/>
	<g>
		<path class="st0" d="M736.5,941.1h-91.6v-61.3h276.2v61.3h-92.7v179.2h-91.9V941.1z"/>
		<path class="st0" d="M948.2,879.8h272.2v61.3h-180.3v26.7h149.3v61.3h-149.3v29.9h191.4v61.3H948.2V879.8z"/>
		<path class="st0" d="M1383.3,1048.1c8.3,13.3,20.2,18.4,42.9,18.4c21.6,0,32.8-5.4,32.8-15.5c0-6.8-3.6-10.5-11.2-12.6
			c-7.6-2.2-12.3-2.9-68.1-8.3c-27-2.5-56.6-8.3-75.7-14.8c-29.9-9.4-46.1-30.6-46.1-60.2c0-54.4,53-82.9,153.9-82.9
			c51.2,0,89.1,7.9,113.6,23.8c19.8,12.6,28.8,26.3,36.4,54.4h-120.1c-5.8-15.1-19.5-22-43.3-22c-19.1,0-31,6.1-31,15.9
			c0,11.9,7.9,14.1,82.2,21.6c42.5,4.3,54.8,6.8,75.4,14.4c29.2,11.2,44.4,32.8,44.4,62.7c0,57.3-51.6,84.7-159.4,84.7
			c-51.6,0-90.5-6.8-114.7-20.2c-26-14.1-36.4-29.6-39.7-59.5H1383.3z"/>
		<path class="st0" d="M1720.5,1048.1c8.3,13.3,20.2,18.4,42.9,18.4c21.6,0,32.8-5.4,32.8-15.5c0-6.8-3.6-10.5-11.2-12.6
			c-7.6-2.2-12.3-2.9-68.1-8.3c-27-2.5-56.6-8.3-75.7-14.8c-29.9-9.4-46.1-30.6-46.1-60.2c0-54.4,53-82.9,153.9-82.9
			c51.2,0,89.1,7.9,113.6,23.8c19.8,12.6,28.8,26.3,36.4,54.4h-120.1c-5.8-15.1-19.5-22-43.3-22c-19.1,0-31,6.1-31,15.9
			c0,11.9,7.9,14.1,82.2,21.6c42.5,4.3,54.8,6.8,75.4,14.4c29.2,11.2,44.4,32.8,44.4,62.7c0,57.3-51.6,84.7-159.4,84.7
			c-51.6,0-90.5-6.8-114.7-20.2c-26-14.1-36.4-29.6-39.7-59.5H1720.5z"/>
	</g>
</g>
</svg>
